<svg xmlns="http://www.w3.org/2000/svg" id="design" viewBox="0 0 400 400">
  <defs>
    <style>
      .object path {
        fill: #fff;
        stroke: #000;
        stroke-width: 3px;
        stroke-linejoin: round;
        stroke-linecap: round;
      }
      .light polyline {
        fill: #fff;
        stroke: #000;
        stroke-width: 3px;
        stroke-linejoin: round;
        stroke-linecap: round;
      }
      .effect line {
        fill: none;
        stroke: #000;
        stroke-width: 3px;
        stroke-linejoin: round;
        stroke-linecap: round;
      }
      .light {
        animation: light 5s ease 1.5s infinite;
      }
      .human {
        animation: human 5s ease 1.5s infinite;
      }
      .effect {
        animation: effect 5s ease 1.5s infinite;
      }

      @keyframes light {
        0% { opacity: 0; }
        30% { opacity: 0; }
        40% { opacity: 1; }
        100% { opacity: 1; }
      }
      @keyframes human {
        0% { opacity: 0; }
        30% { opacity: 0; }
        50% { opacity: 1; }
        100% { opacity: 1; }
      }
      @keyframes effect {
        0% { translate: 0 10px; opacity: 0; }
        55% { translate: 0 10px; opacity: 0; }
        60% { translate: 0; opacity: 1; }
        64% { translate: 0; opacity: 1; }
        65% { translate: 0 10px; opacity: 0; }
        70% { translate: 0; opacity: 1; }
        74% { translate: 0; opacity: 1; }
        75% { translate: 0 10px; opacity: 0; }
        80% { translate: 0; opacity: 1; }
        84% { translate: 0; opacity: 1; }
        85% { translate: 0 10px; opacity: 0; }
        90% { translate: 0; opacity: 1; }
        100% { translate: 0; opacity: 1; }
      }
    </style>
  </defs>
  <g class="object">
    <path d="M342.88,264.26c0-27.39-64.05-49.59-143.05-49.59s-143.05,22.2-143.05,49.59V105.97c0-27.39,64.05-49.59,143.05-49.59s143.05,22.2,143.05,49.59v158.29Z"/>
    <path d="M342.88,264.26c0-27.39-64.05-49.59-143.05-49.59s-143.05,22.2-143.05,49.59v42.08c0,27.39,64.05,49.59,143.05,49.59s143.05-22.2,143.05-49.59v-42.08Z"/>
    <path d="M331.64,283.57c-3.62,2.97-8.05,5.79-13.19,8.42-5.14,2.64-11,5.1-17.47,7.34-6.47,2.24-13.56,4.27-21.17,6.06-7.61,1.78-15.74,3.32-24.3,4.57-8.56,1.25-17.54,2.23-26.85,2.89s-18.95,1.01-28.83,1.01-19.52-.35-28.83-1.01-18.29-1.63-26.85-2.89-16.69-2.79-24.3-4.57c-7.61-1.78-14.7-3.81-21.17-6.06-6.47-2.24-12.33-4.7-17.47-7.34-5.14-2.64-9.57-5.46-13.19-8.42s-6.43-6.08-8.34-9.31c-1.91-3.23-2.91-6.57-2.91-9.99"/>
    <path d="M297.85,242.75v-28.83c0-18.77-43.88-33.98-98.02-33.98s-98.02,15.21-98.02,33.98v28.83"/>
    <path d="M289.98,219.72c-1.14,1.53-2.6,3.02-4.35,4.46-2.36,1.93-5.24,3.77-8.59,5.48-3.35,1.72-7.16,3.32-11.37,4.78s-8.83,2.78-13.78,3.94-10.25,2.16-15.82,2.98c-5.57.82-11.42,1.45-17.48,1.88-6.06.43-12.34.66-18.77.66s-12.7-.23-18.77-.66c-6.06-.43-11.91-1.06-17.48-1.88-5.57-.82-10.86-1.82-15.82-2.98s-9.57-2.48-13.78-3.94c-4.21-1.46-8.02-3.06-11.37-4.78-3.35-1.72-6.23-3.55-8.59-5.48-2.36-1.93-4.19-3.96-5.43-6.06"/>
    <path d="M103.81,249.6c1.31,2.21,3.23,4.35,5.71,6.38s5.51,3.96,9.04,5.77c3.52,1.81,7.53,3.49,11.97,5.03,4.43,1.54,9.29,2.93,14.51,4.15,5.21,1.22,10.79,2.27,16.65,3.13s12.02,1.53,18.4,1.98c6.38.45,12.99.69,19.75.69s13.37-.24,19.75-.69c6.38-.45,12.54-1.12,18.4-1.98s11.43-1.91,16.65-3.13c5.21-1.22,10.07-2.61,14.51-4.15,4.43-1.54,8.45-3.22,11.97-5.03,3.52-1.81,6.56-3.74,9.04-5.77,2.48-2.03,4.41-4.17,5.71-6.38"/>
    <path d="M293.98,89.32c-1.56,1.56-4.1,1.56-5.66,0l-8.76-8.76c-1.56-1.56-1.56-4.1,0-5.66l15.49-15.49c3.98-3.98,10.43-3.98,14.41,0h0c3.98,3.98,3.98,10.43,0,14.41l-15.49,15.49Z"/>
    <path d="M293.98,89.32c-1.56,1.56-4.1,1.56-5.66,0l-8.76-8.76c-1.56-1.56-1.56-4.1,0-5.66l15.49-15.49c3.98-3.98,10.43-3.98,14.41,0h0c3.98,3.98,3.98,10.43,0,14.41l-15.49,15.49Z"/>
    <path d="M330.96,116.24c-1.56,1.56-4.1,1.56-5.66,0l-8.76-8.76c-1.56-1.56-1.56-4.1,0-5.66l15.49-15.49c3.98-3.98,10.43-3.98,14.41,0h0c3.98,3.98,3.98,10.43,0,14.41l-15.49,15.49Z"/>
    <path d="M330.96,116.24c-1.56,1.56-4.1,1.56-5.66,0l-8.76-8.76c-1.56-1.56-1.56-4.1,0-5.66l15.49-15.49c3.98-3.98,10.43-3.98,14.41,0h0c3.98,3.98,3.98,10.43,0,14.41l-15.49,15.49Z"/>
    <path d="M105.68,89.32c1.56,1.56,4.1,1.56,5.66,0l8.76-8.76c1.56-1.56,1.56-4.1,0-5.66l-15.49-15.49c-3.98-3.98-10.43-3.98-14.41,0h0c-3.98,3.98-3.98,10.43,0,14.41l15.49,15.49Z "/>
    <path d="M105.68,89.32c1.56,1.56,4.1,1.56,5.66,0l8.76-8.76c1.56-1.56,1.56-4.1,0-5.66l-15.49-15.49c-3.98-3.98-10.43-3.98-14.41,0h0c-3.98,3.98-3.98,10.43,0,14.41l15.49,15.49Z"/>
    <path d="M68.7,116.24c1.56,1.56,4.1,1.56,5.66,0l8.76-8.76c1.56-1.56,1.56-4.1,0-5.66l-15.49-15.49c-3.98-3.98-10.43-3.98-14.41,0h0c-3.98,3.98-3.98,10.43,0,14.41l15.49,15.49Z"/>
    <path d="M68.7,116.24c1.56,1.56,4.1,1.56,5.66,0l8.76-8.76c1.56-1.56,1.56-4.1,0-5.66l-15.49-15.49c-3.98-3.98-10.43-3.98-14.41,0h0c-3.98,3.98-3.98,10.43,0,14.41l15.49,15.49Z"/>
  </g>
  <g class="light">
    <polyline points="224.07 103.86 280.05 81.05 287.84 88.83 271.2 129.66"/>
    <polyline points="247.06 136.49 317.03 107.97 324.82 115.76 296.31 185.73"/>
    <polyline points="175.59 103.86 119.61 81.05 111.83 88.83 128.46 129.66"/>
    <polyline points="152.6 136.49 82.63 107.97 74.84 115.76 103.36 185.73"/>
  </g>
  <g class="human">
    <path d="M233.96,128.46c-2.4-2.4-6.29-2.4-8.69,0l-17.47,17.47c-2.35-1.15-5.01-1.77-7.83-1.67-2.69.1-5.19.86-7.39,2.11l-17.91-17.91c-2.4-2.4-6.29-2.4-8.69,0s-2.4,6.29,0,8.69l18.88,18.88c-.51,1.62-.79,3.34-.79,5.12v50.79c0,3.24,2.63,5.87,5.87,5.87s5.87-2.63,5.87-5.87v-21.66c0-2.63,2.14-4.77,4.77-4.77s4.77,2.14,4.77,4.77v21.66c0,3.24,2.63,5.87,5.87,5.87s5.87-2.63,5.87-5.87v-51.19c0-2-.38-3.91-1.03-5.69l17.91-17.91c2.4-2.4,2.4-6.29,0-8.69Z"/>
    <circle cx="200.66" cy="126.41" r="10.83"/>
  </g>
  <g class="effect">
    <line x1="199.83" y1="32.09" x2="199.83" y2="74.68"/>
    <line x1="232.22" y1="44.15" x2="218.93" y2="80.68"/>
    <line x1="167.44" y1="44.15" x2="180.74" y2="80.68"/>
  </g>
</svg>
