<svg width="20" height="20" viewBox="0 0 20 20" fill="none" xmlns="http://www.w3.org/2000/svg">
<g clip-path="url(#clip0_1_3002)">
<path d="M19.5 10.0368C19.5 4.7991 15.24 0.540955 10 0.540955C4.76 0.540955 0.5 4.7991 0.5 10.0368C0.5 14.7747 3.98 18.703 8.52 19.4227V12.7856H6.11V10.0368H8.52V7.94772C8.52 5.56876 9.94 4.24934 12.11 4.24934C13.15 4.24934 14.24 4.43925 14.24 4.43925V6.77823H13.04C11.86 6.77823 11.49 7.50792 11.49 8.25759V10.0468H14.12L13.7 12.7956H11.49V19.4327C16.02 18.713 19.5 14.7747 19.5 10.0368Z" fill="black"/>
</g>
<defs>
<clipPath id="clip0_1_3002">
<rect width="20" height="19.9913" fill="white" transform="translate(0 -0.00878906)"/>
</clipPath>
</defs>
</svg>
