<svg width="20" height="20" viewBox="0 0 20 20" fill="none" xmlns="http://www.w3.org/2000/svg">
<g clip-path="url(#clip0_1_3005)">
<path d="M10 2.20901C12.54 2.20901 12.84 2.21901 13.84 2.26898C14.77 2.30897 15.27 2.4689 15.6 2.59884C16.04 2.76877 16.36 2.97867 16.69 3.30853C17.02 3.63839 17.23 3.95825 17.4 4.39806C17.53 4.72791 17.68 5.23769 17.73 6.15729C17.78 7.15685 17.79 7.45672 17.79 9.99562C17.79 12.5345 17.78 12.8344 17.73 13.8339C17.69 14.7635 17.53 15.2633 17.4 15.5932C17.23 16.033 17.02 16.3528 16.69 16.6827C16.36 17.0126 16.04 17.2225 15.6 17.3924C15.27 17.5223 14.76 17.6723 13.84 17.7222C12.84 17.7722 12.54 17.7822 10 17.7822C7.46 17.7822 7.16 17.7722 6.16 17.7222C5.23 17.6823 4.73 17.5223 4.4 17.3924C3.96 17.2225 3.64 17.0126 3.31 16.6827C2.98 16.3528 2.77 16.033 2.6 15.5932C2.47 15.2633 2.32 14.7535 2.27 13.8339C2.22 12.8344 2.21 12.5345 2.21 9.99562C2.21 7.45672 2.22 7.15685 2.27 6.15729C2.31 5.22769 2.47 4.72791 2.6 4.39806C2.77 3.94825 2.97 3.63839 3.3 3.29854C3.64 2.96868 3.95 2.76877 4.4 2.58884C4.73 2.4589 5.24 2.30897 6.16 2.25899C7.16 2.21901 7.46 2.20901 10 2.20901ZM10 0.499756C7.42 0.499756 7.1 0.509752 6.08 0.55973C5.07 0.599712 4.38 0.759643 3.78 0.999538C3.16 1.23943 2.63 1.56929 2.1 2.09906C1.57 2.61883 1.24 3.1486 1 3.77833C0.77 4.37806 0.6 5.06776 0.56 6.08732C0.51 7.09688 0.5 7.41674 0.5 9.99562C0.5 12.5745 0.51 12.8944 0.56 13.9139C0.61 14.9235 0.77 15.6132 1 16.2229C1.24 16.8426 1.57 17.3724 2.1 17.9022C2.63 18.4319 3.16 18.7518 3.78 19.0017C4.38 19.2316 5.07 19.4015 6.09 19.4415C7.1 19.4815 7.42 19.4915 10 19.4915C12.58 19.4915 12.9 19.4815 13.92 19.4315C14.93 19.3815 15.62 19.2216 16.23 18.9917C16.85 18.7518 17.38 18.4219 17.91 17.8922C18.44 17.3624 18.76 16.8326 19.01 16.2129C19.24 15.6132 19.41 14.9235 19.45 13.9039C19.5 12.8944 19.51 12.5645 19.51 9.98562C19.51 7.40674 19.5 7.08688 19.45 6.06733C19.4 5.06776 19.24 4.37806 19 3.77833C18.76 3.1586 18.43 2.62883 17.9 2.09906C17.37 1.56929 16.84 1.24943 16.22 0.999538C15.62 0.769638 14.93 0.599712 13.91 0.55973C12.9 0.509752 12.58 0.499756 10 0.499756Z" fill="black"/>
<path d="M10.0001 5.11774C7.31012 5.11774 5.12012 7.29679 5.12012 9.99561C5.12012 12.6944 7.30012 14.8735 10.0001 14.8735C12.7001 14.8735 14.8801 12.6944 14.8801 9.99561C14.8801 7.29679 12.6901 5.11774 10.0001 5.11774ZM10.0001 13.1642C8.25012 13.1642 6.83012 11.7448 6.83012 9.99561C6.83012 8.24637 8.25012 6.82699 10.0001 6.82699C11.7501 6.82699 13.1701 8.24637 13.1701 9.99561C13.1701 11.7448 11.7501 13.1642 10.0001 13.1642Z" fill="black"/>
<path d="M15.0702 6.06734C15.6998 6.06734 16.2102 5.55716 16.2102 4.92783C16.2102 4.2985 15.6998 3.78833 15.0702 3.78833C14.4406 3.78833 13.9302 4.2985 13.9302 4.92783C13.9302 5.55716 14.4406 6.06734 15.0702 6.06734Z" fill="black"/>
</g>
<defs>
<clipPath id="clip0_1_3005">
<rect width="20" height="19.9913" fill="white"/>
</clipPath>
</defs>
</svg>
